<svg width="230" height="40" viewBox="0 0 230 40" fill="none" xmlns="http://www.w3.org/2000/svg">
<g clip-path="url(#clip0_338_125)">
<path d="M13.6353 21.9889C11.325 21.9889 9.00741 22.0108 6.6971 21.9889C3.09273 21.9379 0.2414 19.3853 0.0732447 15.8335C-0.0802884 12.6828 0.0732447 9.52485 0.022067 6.36689C-0.0217996 3.09953 3.72149 -0.145947 6.74097 -8.24202e-05C11.4128 0.2333 16.1138 0.2333 20.7929 -8.24202e-05C23.7758 -0.145947 27.4314 3.52983 27.2852 6.39606C27.1243 9.48109 27.2998 12.588 27.234 15.6803C27.1609 19.0935 24.3534 21.8358 20.9318 21.9744C20.8075 21.9744 20.6906 21.9744 20.5663 21.9744C18.256 21.9744 15.9383 21.9744 13.628 21.9744L13.6353 21.9889ZM13.7523 3.37667C11.2592 3.37667 8.76615 3.38397 6.27306 3.37667C4.54033 3.36938 3.65568 4.25186 3.63375 5.9293C3.5972 9.32793 3.56064 12.7266 3.63375 16.1252C3.67762 18.1017 4.52571 18.8529 6.49239 18.8674C11.2373 18.8966 15.9822 18.8966 20.7271 18.8674C22.9278 18.8529 23.615 18.2111 23.6515 16.0814C23.7027 12.7412 23.6954 9.40816 23.6515 6.06787C23.6223 3.96013 23.0447 3.42043 20.8733 3.39126C18.5045 3.35479 16.1284 3.38397 13.7596 3.39126L13.7523 3.37667Z" fill="#FF6225"/>
<path d="M170.7 0.167754C172.184 -0.153147 173.215 0.138581 174.406 1.12316C179.882 5.63766 185.512 9.96253 191.083 14.3676C192.019 15.1042 192.918 15.8846 194.139 16.8984V0.145874H197.305V21.5223C195.726 22.1495 194.6 21.4785 193.445 20.5523C187.303 15.6002 181.118 10.6919 174.947 5.76894C174.713 5.58661 174.458 5.43345 173.909 5.06879V21.639H170.692V0.167754H170.7Z" fill="#FF6225"/>
<path d="M37.5421 21.6025H34.625V12.238C35.2245 12.2088 35.8606 12.1432 36.4966 12.1432C42.0385 12.1359 47.5803 12.1286 53.1221 12.1432C55.2569 12.1432 56.6899 11.1148 57.5234 9.20401C58.3057 7.40988 57.8158 5.71786 56.456 4.57282C55.5786 3.83621 54.1822 3.4205 53.0051 3.39132C47.5876 3.26734 42.1701 3.34027 36.7452 3.33298C36.0872 3.33298 35.4292 3.33298 34.6323 3.33298V0.218778C35.0417 0.175018 35.5096 0.0802068 35.9702 0.0802068C41.8191 0.0729136 47.6607 0.0802068 53.5096 0.0802068C56.8142 0.0802068 59.1026 1.88163 60.3893 4.65305C61.6395 7.33695 61.3032 10.1594 59.2927 12.5078C57.7573 14.3093 55.6956 15.1261 53.3122 15.1261C48.6842 15.1261 44.0563 15.1917 39.4284 15.0896C37.8565 15.0532 37.4032 15.6002 37.5056 17.0734C37.6079 18.5101 37.5275 19.9688 37.5275 21.6025H37.5421Z" fill="#FF6225"/>
<path d="M68.4393 0.153137H71.4368C71.4368 0.853285 71.4368 1.50238 71.4368 2.14418C71.4368 6.46176 71.4222 10.772 71.4441 15.0896C71.4588 17.5329 72.5701 18.656 75.0412 18.6706C79.4864 18.7071 83.9315 18.6998 88.3767 18.6706C90.8259 18.656 91.9152 17.5401 91.9225 15.0677C91.9445 10.1521 91.9225 5.2438 91.9225 0.175017H95.0078C95.0517 0.583437 95.1467 1.04291 95.1467 1.50238C95.154 5.87831 95.176 10.2542 95.1467 14.6302C95.1175 19.1155 92.6025 21.6462 88.1354 21.6754C83.873 21.7046 79.6106 21.7046 75.3483 21.6754C70.947 21.6389 68.4685 19.1519 68.4466 14.7396C68.4173 9.94792 68.4466 5.15628 68.4466 0.153137H68.4393Z" fill="#FF6225"/>
<path d="M140.607 18.605H163.813C163.423 20.7054 162.289 21.7557 160.413 21.7557C153.358 21.7557 146.295 21.7557 139.24 21.7557C138.582 21.7557 137.924 21.7557 137.186 21.7557V9.43744H158.402C158.198 12.5298 157.993 12.7267 155.142 12.7267C150.346 12.7267 145.542 12.7267 140.607 12.7267V18.5977V18.605Z" fill="#FF6225"/>
<path d="M230 0.0218506C229.868 3.04853 229.539 3.39131 226.951 3.39131C224.224 3.39131 221.504 3.39131 218.543 3.39131V21.6462H215.436V3.46424H203.987C203.928 0.539668 204.411 0.0218506 206.999 0.0218506C214.003 0.0218506 221.014 0.0218506 228.019 0.0218506C228.677 0.0218506 229.335 0.0218506 230 0.0218506Z" fill="#FF6225"/>
<path d="M102.911 21.7484V0.131287H105.923V18.6123H129.48C129.109 20.7079 127.974 21.7556 126.073 21.7556C119.076 21.7556 112.072 21.7556 105.075 21.7556H102.911V21.7484Z" fill="#FF6225"/>
<path d="M137.164 3.39132V0.123962H163.988C163.725 3.26004 163.593 3.38403 160.603 3.38403C153.489 3.38403 146.368 3.38403 139.255 3.38403H137.156L137.164 3.39132Z" fill="#FF6225"/>
</g>
<path d="M1.32764 32.1742V38.5775H6.74033V39.7315H0V32.1742H1.32764Z" fill="white"/>
<path d="M14.3035 32.1742H15.6618V36.2184C15.6618 36.9605 15.4779 37.6141 15.1103 38.1792C14.7494 38.7375 14.249 39.1732 13.609 39.4864C12.969 39.7928 12.2405 39.946 11.4235 39.946C10.6338 39.946 9.89844 39.7894 9.2176 39.4762C8.53676 39.163 7.98868 38.7239 7.57337 38.1588C7.15806 37.5937 6.947 36.9469 6.94019 36.2184V32.1742H8.29847V36.3205C8.29847 36.9333 8.47889 37.4235 8.83974 37.7911C9.20739 38.1588 9.63292 38.4175 10.1163 38.5673C10.5997 38.7171 11.0389 38.792 11.4337 38.792C11.815 38.792 12.2235 38.7205 12.6593 38.5775C13.1018 38.4277 13.4865 38.169 13.8133 37.8014C14.1401 37.4269 14.3035 36.9333 14.3035 36.3205V32.1742Z" fill="white"/>
<path d="M23.3403 32.1742H25.0049L21.9514 35.9835L25.0049 39.7315H23.3403L20.7463 36.5656L18.1523 39.7315H16.4774L19.531 35.9835L16.4774 32.1742H18.1523L20.7463 35.3605L23.3403 32.1742Z" fill="white"/>
<path d="M33.1829 32.1742H34.5411V36.2184C34.5411 36.9605 34.3573 37.6141 33.9897 38.1792C33.6288 38.7375 33.1284 39.1732 32.4884 39.4864C31.8484 39.7928 31.1199 39.946 30.3029 39.946C29.5131 39.946 28.7778 39.7894 28.097 39.4762C27.4161 39.163 26.8681 38.7239 26.4527 38.1588C26.0374 37.5937 25.8264 36.9469 25.8196 36.2184V32.1742H27.1778V36.3205C27.1778 36.9333 27.3583 37.4235 27.7191 37.7911C28.0868 38.1588 28.5123 38.4175 28.9957 38.5673C29.4791 38.7171 29.9182 38.792 30.3131 38.792C30.6944 38.792 31.1029 38.7205 31.5386 38.5775C31.9812 38.4277 32.3658 38.169 32.6926 37.8014C33.0195 37.4269 33.1829 36.9333 33.1829 36.3205V32.1742Z" fill="white"/>
<path d="M42.4239 39.7111L40.3303 37.2703H37.0521V39.7111H35.7142V32.1538H40.8818C41.515 32.1538 42.0733 32.2593 42.5567 32.4704C43.0469 32.6814 43.4248 32.9776 43.6903 33.3589C43.9626 33.7333 44.0988 34.1691 44.0988 34.6661V34.7069C44.0988 35.3537 43.9081 35.8882 43.5269 36.3103C43.1524 36.7324 42.6316 37.015 41.9643 37.158L44.1601 39.7111H42.4239ZM42.6792 34.758C42.6792 34.3086 42.5941 33.9818 42.4239 33.7776C42.2605 33.5665 42.0529 33.4372 41.8009 33.3895C41.5558 33.3418 41.212 33.318 40.7695 33.318C40.572 33.318 40.4018 33.3214 40.2588 33.3282C39.578 33.3555 38.5091 33.3691 37.0521 33.3691V36.1061H40.7695C41.212 36.1061 41.5558 36.0856 41.8009 36.0448C42.0529 35.9971 42.2605 35.878 42.4239 35.6873C42.5941 35.4899 42.6792 35.1801 42.6792 34.758Z" fill="white"/>
<path d="M51.0413 32.1742H52.7264L49.06 36.5452V39.7315H47.5792V36.5656L43.9027 32.1742H45.5877L48.2941 35.4627L51.0413 32.1742Z" fill="white"/>
<path d="M56.9126 35.9631C56.9126 35.2073 57.1134 34.5265 57.5151 33.9206C57.9236 33.3146 58.4785 32.8414 59.1798 32.501C59.8811 32.1538 60.6606 31.9802 61.5185 31.9802C62.5465 31.9802 63.4487 32.2355 64.2248 32.7461C65.0078 33.2567 65.5729 33.9818 65.9201 34.9214L64.5312 34.9418C64.3882 34.5605 64.1465 34.2337 63.8061 33.9614C63.4657 33.6891 63.0878 33.4848 62.6725 33.3487C62.264 33.2057 61.8827 33.1342 61.5287 33.1342C60.9976 33.1342 60.4768 33.2465 59.9662 33.4712C59.4623 33.6891 59.047 34.0125 58.7202 34.4414C58.4002 34.8703 58.2402 35.3776 58.2402 35.9631C58.2402 36.5622 58.39 37.0729 58.6896 37.495C58.9892 37.9171 59.3874 38.2371 59.8845 38.455C60.3883 38.6728 60.9364 38.7818 61.5287 38.7818C61.8759 38.7818 62.2402 38.7171 62.6214 38.5877C63.0027 38.4516 63.3601 38.2507 63.6938 37.9852C64.0274 37.7197 64.2929 37.3963 64.4903 37.015H65.9303C65.549 37.9682 64.9737 38.6933 64.2044 39.1903C63.4418 39.6873 62.5465 39.9358 61.5185 39.9358C60.6674 39.9358 59.8879 39.7622 59.1798 39.4149C58.4785 39.0677 57.9236 38.5911 57.5151 37.9852C57.1134 37.3792 56.9126 36.7052 56.9126 35.9631Z" fill="white"/>
<path d="M75.7023 39.7315H74.2725L73.3227 37.975H68.3083L67.3586 39.7315H65.9288L70.0241 32.1742H71.607L75.7023 39.7315ZM70.8206 33.3487L68.9824 36.729H72.6487L70.8206 33.3487Z" fill="white"/>
<path d="M83.025 39.7111L80.9315 37.2703H77.6532V39.7111H76.3154V32.1538H81.4829C82.1161 32.1538 82.6744 32.2593 83.1578 32.4704C83.648 32.6814 84.0259 32.9776 84.2914 33.3589C84.5637 33.7333 84.6999 34.1691 84.6999 34.6661V34.7069C84.6999 35.3537 84.5093 35.8882 84.128 36.3103C83.7535 36.7324 83.2327 37.015 82.5655 37.158L84.7612 39.7111H83.025ZM83.2803 34.758C83.2803 34.3086 83.1953 33.9818 83.025 33.7776C82.8616 33.5665 82.654 33.4372 82.4021 33.3895C82.157 33.3418 81.8131 33.318 81.3706 33.318C81.1732 33.318 81.0029 33.3214 80.86 33.3282C80.1791 33.3555 79.1102 33.3691 77.6532 33.3691V36.1061H81.3706C81.8131 36.1061 82.157 36.0856 82.4021 36.0448C82.654 35.9971 82.8616 35.878 83.025 35.6873C83.1953 35.4899 83.2803 35.1801 83.2803 34.758Z" fill="white"/>
<path d="M90.0603 35.3912C90.9385 35.3912 91.6738 35.432 92.2662 35.5137C92.8653 35.5886 93.3623 35.769 93.7572 36.055C94.1521 36.3409 94.3496 36.7733 94.3496 37.352C94.3496 38.3801 93.9036 39.0745 93.0117 39.4354C92.1266 39.7894 91.1258 39.9664 90.0092 39.9664C89.4032 39.9664 88.7667 39.8983 88.0994 39.7622C87.4322 39.6328 86.8365 39.3673 86.3122 38.9656C85.788 38.5571 85.5259 37.9818 85.5259 37.2397L86.925 37.1988C86.925 37.6754 87.1122 38.0294 87.4867 38.2609C87.868 38.4924 88.2833 38.6354 88.7326 38.6898C89.182 38.7443 89.6586 38.7716 90.1624 38.7716C90.9385 38.7716 91.6024 38.666 92.1538 38.455C92.7121 38.2439 92.9947 37.8899 93.0015 37.3928V37.3826C93.0015 37.049 92.7291 36.838 92.1845 36.7495C91.6398 36.6541 90.9726 36.6065 90.1828 36.6065H89.9173C88.9233 36.5997 88.1267 36.5554 87.5275 36.4737C86.9352 36.392 86.4518 36.2014 86.0773 35.9018C85.7097 35.6022 85.5259 35.1393 85.5259 34.5129C85.5259 33.4576 85.9922 32.7665 86.925 32.4397C87.8645 32.1129 88.8926 31.9495 90.0092 31.9495C90.5879 31.9495 91.2007 32.0176 91.8475 32.1538C92.4943 32.2831 93.073 32.5521 93.5836 32.9606C94.0942 33.3623 94.3496 33.9342 94.3496 34.6763H92.9504C92.9504 34.1929 92.6679 33.8286 92.1028 33.5835C91.5445 33.3316 90.8602 33.1887 90.05 33.1546C89.1649 33.1546 88.4126 33.2635 87.7931 33.4814C87.1803 33.6925 86.8739 34.0261 86.8739 34.4823C86.8739 34.8635 87.1599 35.112 87.7318 35.2278C88.3037 35.3367 88.9879 35.3912 89.7845 35.3912H90.0603Z" fill="white"/>
<path d="M106.502 32.1742V33.3487H100.272V35.095H105.644V36.2184H100.272V39.7315H98.9447V32.1742H106.502Z" fill="white"/>
<path d="M111.074 32.0108C111.938 32.0108 112.714 32.1844 113.402 32.5316C114.097 32.8721 114.638 33.3452 115.026 33.9512C115.421 34.5503 115.618 35.2278 115.618 35.9835C115.618 36.7324 115.421 37.4065 115.026 38.0056C114.638 38.6047 114.1 39.0779 113.412 39.4252C112.725 39.7656 111.949 39.9358 111.084 39.9358C110.246 39.9358 109.477 39.7656 108.776 39.4252C108.075 39.0779 107.52 38.6047 107.111 38.0056C106.703 37.3997 106.498 36.7256 106.498 35.9835C106.498 35.2346 106.703 34.5571 107.111 33.9512C107.52 33.3452 108.071 32.8721 108.766 32.5316C109.467 32.1844 110.236 32.0108 111.074 32.0108ZM111.074 38.7818C111.625 38.7818 112.146 38.6728 112.636 38.455C113.126 38.2371 113.521 37.9171 113.821 37.495C114.12 37.0729 114.27 36.569 114.27 35.9835C114.27 35.4116 114.117 34.9112 113.811 34.4823C113.511 34.0533 113.113 33.7265 112.616 33.5018C112.119 33.2772 111.595 33.1648 111.043 33.1648C110.444 33.1648 109.899 33.2772 109.409 33.5018C108.926 33.7265 108.544 34.0533 108.265 34.4823C107.986 34.9044 107.846 35.4048 107.846 35.9835C107.846 36.5758 107.993 37.0831 108.286 37.5052C108.585 37.9273 108.98 38.2473 109.47 38.4652C109.96 38.6762 110.495 38.7818 111.074 38.7818Z" fill="white"/>
<path d="M123.297 39.7111L121.203 37.2703H117.925V39.7111H116.587V32.1538H121.755C122.388 32.1538 122.946 32.2593 123.43 32.4704C123.92 32.6814 124.298 32.9776 124.563 33.3589C124.836 33.7333 124.972 34.1691 124.972 34.6661V34.7069C124.972 35.3537 124.781 35.8882 124.4 36.3103C124.026 36.7324 123.505 37.015 122.837 37.158L125.033 39.7111H123.297ZM123.552 34.758C123.552 34.3086 123.467 33.9818 123.297 33.7776C123.134 33.5665 122.926 33.4372 122.674 33.3895C122.429 33.3418 122.085 33.318 121.643 33.318C121.445 33.318 121.275 33.3214 121.132 33.3282C120.451 33.3555 119.382 33.3691 117.925 33.3691V36.1061H121.643C122.085 36.1061 122.429 36.0856 122.674 36.0448C122.926 35.9971 123.134 35.878 123.297 35.6873C123.467 35.4899 123.552 35.1801 123.552 34.758Z" fill="white"/>
<path d="M136.282 39.7111L134.189 37.2703H130.91V39.7111H129.573V32.1538H134.74C135.373 32.1538 135.932 32.2593 136.415 32.4704C136.905 32.6814 137.283 32.9776 137.549 33.3589C137.821 33.7333 137.957 34.1691 137.957 34.6661V34.7069C137.957 35.3537 137.766 35.8882 137.385 36.3103C137.011 36.7324 136.49 37.015 135.823 37.158L138.018 39.7111H136.282ZM136.538 34.758C136.538 34.3086 136.452 33.9818 136.282 33.7776C136.119 33.5665 135.911 33.4372 135.659 33.3895C135.414 33.3418 135.07 33.318 134.628 33.318C134.43 33.318 134.26 33.3214 134.117 33.3282C133.436 33.3555 132.367 33.3691 130.91 33.3691V36.1061H134.628C135.07 36.1061 135.414 36.0856 135.659 36.0448C135.911 35.9971 136.119 35.878 136.282 35.6873C136.452 35.4899 136.538 35.1801 136.538 34.758Z" fill="white"/>
<path d="M145.687 36.3614H140.315V38.5979L146.545 38.5571V39.7315H138.987V32.1742H146.545L146.555 33.3487H140.315V35.1869H145.687V36.3614Z" fill="white"/>
<path d="M148.952 39.7315H147.624V32.1742L148.952 39.7315ZM154.875 37.9035V32.1742H156.203V39.7315H154.875L148.952 33.992V39.7315H147.624V32.1742H148.952L154.875 37.9035Z" fill="white"/>
<path d="M157.275 33.318V32.1742H165.659L157.275 33.318ZM165.659 32.1742V33.3487H162.156V39.7315H160.829V33.3487H157.275V32.1742H165.659Z" fill="white"/>
<defs>
<clipPath id="clip0_338_125">
<rect width="230" height="22.0036" fill="white"/>
</clipPath>
</defs>
</svg>
