<svg width="95" height="28" viewBox="0 0 95 28" fill="none" xmlns="http://www.w3.org/2000/svg">
<g clip-path="url(#clip0_152_1189)">
<path d="M94.0618 17.7794H90.3098L91.2002 19.9631H94.9961L94.0581 17.7794H94.0618ZM89.9031 8.14307H85.1729L82.8536 13.5475H86.4846L86.6532 13.1444L87.408 11.1585H87.6351L88.4082 13.1444L88.5768 13.5475H92.2334L89.9031 8.14307ZM80.0946 19.9631H83.8026L84.7113 17.7794H81.029L80.0946 19.9631ZM69.7695 8.14307V11.1365H73.9355V19.9594H77.2404V11.1365H81.388V8.14307H69.7695ZM65.5925 12.8989L61.8992 12.353C61.2654 12.2651 61.0565 12.0892 61.0565 11.7191C61.0565 11.2098 61.4266 10.4184 63.112 10.4184C65.3287 10.4184 65.6988 11.2611 65.6988 12.1075V12.3713H69.0037V12.2651C69.0037 9.62698 67.212 8.14307 63.4638 8.14307C59.2099 8.14307 57.7516 9.96041 57.7516 11.84C57.7516 13.7197 58.8581 14.9178 61.0565 15.2146L64.7498 15.7055C65.7171 15.8301 65.9443 16.006 65.9443 16.4274C65.9443 16.955 65.7318 17.9809 63.7276 17.9809C61.5109 17.9809 61.2324 16.9037 61.2324 16.1123V15.7422H57.9275V15.8484C57.9275 18.8383 60.1259 19.9594 63.7276 19.9594C67.6993 19.9594 69.2456 18.3253 69.2456 16.3064C69.2456 14.7932 68.4724 13.3166 65.5889 12.8953L65.5925 12.8989ZM52.5671 8.14307H47.8368L42.7549 19.9631H46.4628L47.3752 17.7684H52.9664L53.8604 19.9631H57.66L52.5671 8.14307ZM48.6283 14.7932L49.3134 13.1408L50.0682 11.1549H50.2954L51.0685 13.1408L51.7536 14.7932H48.6246H48.6283Z" fill="white"/>
</g>
<path d="M31.189 8.14307H36.0579C37.698 8.14307 39.0761 8.71314 40.1922 9.85329C41.3084 10.9934 41.8665 12.3989 41.8665 14.0696C41.8665 15.7516 41.3084 17.1627 40.1922 18.3028C39.0875 19.4317 37.7094 19.9961 36.0579 19.9961H31.189V8.14307ZM34.3324 17.0667H36.0579C36.8779 17.0667 37.5556 16.7958 38.0909 16.2539C38.6148 15.7008 38.8768 14.9727 38.8768 14.0696C38.8768 13.1552 38.6148 12.4327 38.0909 11.9022C37.567 11.349 36.8893 11.0725 36.0579 11.0725H34.3324V17.0667Z" fill="white"/>
<path d="M79.6108 15.5873C79.6108 14.9951 80.0021 14.6082 80.6631 14.6082C81.3242 14.6082 81.6884 14.911 81.6884 15.4191V15.4662H81.0915V15.4191C81.0915 15.2037 80.9903 15.1196 80.6732 15.1196C80.2854 15.1196 80.1808 15.2104 80.1808 15.5873C80.1808 15.9641 80.2854 16.055 80.6732 16.055C80.9903 16.055 81.0915 15.9709 81.0915 15.7555V15.7084H81.6884V15.7555C81.6884 16.2636 81.3039 16.5664 80.6631 16.5664C80.0223 16.5664 79.6108 16.1795 79.6108 15.5873Z" fill="#2C5CFF"/>
<path d="M81.833 16.5397V14.6387H82.946C83.4485 14.6387 83.715 14.8473 83.715 15.2208C83.715 15.5202 83.5632 15.7019 83.199 15.7457V15.7726C83.3946 15.8231 83.4587 15.9173 83.5295 16.062L83.7656 16.5397H83.1484L82.9224 16.0754C82.8549 15.9341 82.7976 15.8937 82.5885 15.8937H82.3693V16.5397H81.833ZM82.3693 15.4933H82.9426C83.0978 15.4933 83.1551 15.4664 83.1551 15.3049C83.1551 15.1535 83.0978 15.1165 82.9426 15.1165H82.3693V15.4933Z" fill="#2C5CFF"/>
<path d="M83.854 16.5397V14.6387H85.5471V15.1198H84.3903V15.3486H85.5066V15.8264H84.3903V16.0653H85.5471V16.5465H83.854V16.5397Z" fill="#2C5CFF"/>
<path d="M85.5835 16.5397L86.4064 14.6387H87.172L87.9984 16.5397H87.3845L87.2395 16.1864H86.3356L86.1872 16.5397H85.5869H85.5835ZM86.5346 15.7087H87.0405L86.9292 15.4428L86.8044 15.1232H86.7673L86.6459 15.4428L86.5346 15.7087Z" fill="#2C5CFF"/>
<path d="M88.6902 16.5392V15.1159H88.0156V14.6348H89.8976V15.1159H89.2264V16.5392H88.6902Z" fill="#2C5CFF"/>
<path d="M90.0259 16.5397V14.6387H90.5621V16.5397H90.0259Z" fill="#2C5CFF"/>
<path d="M91.3813 16.5397L90.6157 14.6387H91.2633L91.7557 16.0014H91.7928L92.2751 14.6387H92.9193L92.1537 16.5397H91.3847H91.3813Z" fill="#2C5CFF"/>
<path d="M92.9766 16.5397V14.6387H94.6697V15.1198H93.5128V15.3486H94.6292V15.8264H93.5128V16.0653H94.6697V16.5465H92.9766V16.5397Z" fill="#2C5CFF"/>
<path d="M27.4849 13.7051C22.8752 14.0099 19.861 14.4878 17.8552 15.7258C16.9822 16.2602 16.3011 16.9413 15.763 17.8143C14.5287 19.8163 14.047 22.823 13.7422 27.4101C13.4374 22.8154 12.9595 19.8125 11.7215 17.8143C11.1871 16.9451 10.506 16.264 9.63295 15.7258C7.62724 14.4916 4.61303 14.0099 -0.000488281 13.7051C4.60926 13.4003 7.62724 12.9186 9.63295 11.6843C10.506 11.1462 11.1871 10.4651 11.7252 9.59204C12.9557 7.5901 13.4374 4.58341 13.7422 0C14.0433 4.59094 14.5249 7.59386 15.7592 9.59204C16.2973 10.4651 16.9784 11.1462 17.8552 11.6843C19.861 12.9186 22.8752 13.4003 27.4849 13.7051Z" fill="#2C5CFF"/>
<path d="M10.6798 7.8269C9.96588 8.98492 9.06471 9.88608 7.90234 10.6044V7.8269H10.6798Z" fill="#2C5CFF"/>
<path d="M19.5675 7.82666V10.6042C18.407 9.89019 17.5029 8.98903 16.79 7.82666H19.5675Z" fill="#2C5CFF"/>
<path d="M10.6798 19.4919H7.90234V16.7144C9.06218 17.4294 9.96476 18.332 10.6798 19.4919Z" fill="#2C5CFF"/>
<path d="M19.5675 16.7144V19.4919H16.79C17.504 18.332 18.4052 17.4294 19.5675 16.7144Z" fill="#2C5CFF"/>
<defs>
<clipPath id="clip0_152_1189">
<rect width="65.1824" height="11.853" fill="white" transform="translate(29.8174 8.14307)"/>
</clipPath>
</defs>
</svg>
