<svg width="128" height="37" viewBox="0 0 128 37" fill="none" xmlns="http://www.w3.org/2000/svg">
<path d="M0 0V7.21773H6.72561V21.8156C7.27225 20.005 8.24351 19.0898 9.63939 19.0898C10.6643 19.0898 11.9284 19.5572 13.7489 22.2584H15.1009V7.21773H21.8314V0H0Z" fill="#089147"/>
<path d="M39.5285 0V12.6298C39.5285 14.096 39.2113 15.2227 38.5817 16.005C37.9472 16.7873 37.0491 17.1759 35.8777 17.1759C34.7064 17.1759 33.8083 16.7873 33.1738 16.005C32.5442 15.2227 32.227 14.096 32.227 12.6298V0H23.7101V12.2706C23.7101 15.4736 24.3251 18.0911 25.5502 20.1181C25.9943 19.5572 26.6093 19.1538 27.4536 19.0997C27.522 19.0948 27.5854 19.0898 27.6538 19.0898C28.6787 19.0898 29.9428 19.5572 31.7633 22.2584H33.618C34.1353 20.1526 35.1505 19.0898 36.6538 19.0898C37.6836 19.0898 38.9428 19.5572 40.7682 22.2584H42.6229C43.1451 20.1526 44.1749 19.0898 45.7026 19.0898C45.9271 19.0898 46.2541 19.0898 46.6787 19.2424C47.5963 17.358 48.0502 15.0308 48.0502 12.2706V0H39.5285Z" fill="#089147"/>
<path d="M56.0539 28.93L54.9801 30.2732L52.6667 33.1907C52.408 35.4884 51.8467 36.3593 51.1342 36.3593C49.543 36.3593 47.2149 31.9706 46.0192 29.4712H45.7703L46.7464 33.1907H43.6618C43.408 35.4884 42.8418 36.3543 42.1341 36.3543C40.5381 36.3543 38.21 31.9706 37.0143 29.4712H36.7654L37.7415 33.1907H34.6618C34.4129 35.4146 33.8711 36.3051 33.1927 36.3543H33.1292C31.5332 36.3543 29.21 31.9706 28.0142 29.4712H27.7653L28.7366 33.1907H25.6569C25.4031 35.4884 24.8369 36.3543 24.1243 36.3543C22.5332 36.3543 20.2051 31.9706 19.0093 29.4712H18.7604L19.7366 33.1907H16.652C16.3982 35.4884 15.832 36.3543 15.1243 36.3543C13.5283 36.3543 11.2051 31.9706 10.0044 29.4712H6.7002V24.064H8.10584C8.36452 21.7664 8.9258 20.8955 9.63838 20.8955C10.6438 20.8955 11.9323 22.6274 13.05 24.5364C13.7089 25.6631 14.3092 26.8488 14.7534 27.7787H15.0023L14.153 24.5364L14.031 24.064H17.1107C17.3645 21.7664 17.9307 20.8955 18.6433 20.8955C20.2344 20.8955 22.5625 25.2793 23.7583 27.7787H24.0072L23.031 24.064H26.1156C26.2377 22.9373 26.4378 22.155 26.6916 21.6532C26.9405 21.1514 27.248 20.9201 27.5896 20.9004C27.6091 20.8955 27.6287 20.8955 27.6531 20.8955C28.6243 20.8955 29.864 22.5241 30.9573 24.3592C31.6601 25.5351 32.2995 26.7996 32.7681 27.7787H33.017L32.2068 24.7036L32.0408 24.064H35.1254C35.3792 21.7664 35.9454 20.8955 36.6531 20.8955C37.6634 20.8955 38.9665 22.6471 40.0891 24.5708C40.7431 25.6876 41.3337 26.8586 41.773 27.7787H42.0219L41.0945 24.2559L41.0457 24.064H44.1255C44.2084 23.3063 44.3304 22.7012 44.4866 22.2338C44.7795 21.294 45.1992 20.9053 45.6873 20.8955H45.7019C47.3565 20.8955 49.7773 25.2793 50.9731 27.7787V24.5364H51.1097L56.0539 28.93Z" fill="white"/>
<path d="M50.975 24.4133V24.5363H51.1117L50.975 24.4133ZM69.6877 16.0935C71.6936 14.3371 72.6942 12.0295 72.6942 9.16607C72.6942 6.30259 71.7229 3.97049 69.7804 2.38131C67.833 0.797048 65.0705 0 61.493 0H50.1111V21.2399L52.161 23.0603L53.8205 24.5363H58.4864V18.7651H62.0298L65.0705 24.5363H74.4122L69.6877 16.0935ZM63.4452 10.77C62.9523 11.1931 62.3032 11.4047 61.493 11.4047H58.4864V7.00125H61.493C62.3032 7.00125 62.9523 7.19313 63.4452 7.57689C63.9333 7.96558 64.1773 8.46743 64.1773 9.09227C64.1773 9.79092 63.9333 10.3518 63.4452 10.77Z" fill="#089147"/>
<path d="M93.7534 0H85.4513L75.5728 24.5363H84.4849L85.4415 21.7565L85.4513 21.7221L87.672 15.1538L87.6818 15.1193L89.6048 9.52523L91.5375 15.1538H88.7848L86.6373 21.7221H93.7534L94.7198 24.5363H103.632L93.7534 0Z" fill="#089147"/>
<path d="M119.44 0V9.84996L110.884 0H104.266V24.5363H112.641V14.7946L121.192 24.5363H127.815V0H119.44Z" fill="#089147"/>
<path d="M65.0255 26.3657L63.2782 29.244L61.5358 26.3657H60.0667V32.8454H61.5358V29.0767L63.1952 31.827H63.3612L65.0255 29.0767V32.8454H66.4946V26.3657H65.0255Z" fill="white"/>
<path d="M73.2639 26.3657H71.3897L69.2032 32.8454H70.8138L71.1359 31.827H73.5226L73.8447 32.8454H75.4505L73.2639 26.3657ZM71.5752 30.4346L72.3268 28.0582L73.0785 30.4346H71.5752Z" fill="white"/>
<path d="M81 31.5318C79.8628 31.5318 79.1258 30.7594 79.1258 29.6032C79.1258 28.4469 79.8628 27.6794 81 27.6794C81.6492 27.6794 82.2007 27.9746 82.4886 28.4765L83.7527 27.7335C83.1915 26.8184 82.1665 26.2329 81 26.2329C79.0624 26.2329 77.6567 27.6991 77.6567 29.6032C77.6567 31.5072 79.0624 32.9734 81 32.9734C82.1763 32.9734 83.2012 32.3879 83.7527 31.4728L82.4886 30.7348C82.2104 31.2317 81.6492 31.5318 81 31.5318Z" fill="white"/>
<path d="M90.0941 26.3657V28.8454H88.0735V26.3657H86.6044V32.8454H88.0735V30.2723H90.0941V32.8454H91.5632V26.3657H90.0941Z" fill="white"/>
<path d="M94.8269 26.3657V32.8454H96.296V26.3657H94.8269Z" fill="white"/>
<path d="M103.14 26.3657V29.8836L100.66 26.3657H99.5572V32.8454H101.026V29.3276L103.506 32.8454H104.609V26.3657H103.14Z" fill="white"/>
<path d="M109.338 31.4186V30.2723H111.637V28.8651H109.338V27.7876H111.866V26.3657H107.869V32.8454H111.91V31.4186H109.338Z" fill="white"/>
<path d="M118.489 30.4641C119.196 30.105 119.67 29.3817 119.67 28.5847C119.67 27.3547 118.689 26.3657 117.469 26.3657H114.897V32.8454H116.366V30.7151H117.064L118.279 32.8454H119.855L118.489 30.4641ZM117.469 29.4211H116.366V27.7532H117.469C117.874 27.7532 118.201 28.1123 118.201 28.5847C118.201 29.057 117.874 29.4211 117.469 29.4211Z" fill="white"/>
<path d="M126.082 26.3657L124.862 28.8651L123.642 26.3657H121.968L124.13 30.3559V32.8454H125.599V30.3559L127.756 26.3657H126.082Z" fill="white"/>
</svg>
