<svg width="130" height="37" viewBox="0 0 130 37" fill="none" xmlns="http://www.w3.org/2000/svg">
<path d="M48.6144 32.9993C47.9585 32.9993 47.3715 32.89 46.8532 32.6714C46.3391 32.4487 45.9018 32.139 45.5415 31.7422C45.1811 31.3414 44.9058 30.8616 44.7155 30.3029C44.5252 29.7442 44.4301 29.1247 44.4301 28.4445C44.4301 27.7644 44.5252 27.1449 44.7155 26.5862C44.9058 26.0275 45.1811 25.5497 45.5415 25.1529C45.9018 24.7521 46.3391 24.4424 46.8532 24.2238C47.3715 24.0011 47.9585 23.8897 48.6144 23.8897C49.1165 23.8897 49.578 23.9545 49.9991 24.0841C50.4242 24.2136 50.8027 24.3999 51.1347 24.6428C51.4667 24.8857 51.7522 25.1793 51.991 25.5234C52.2299 25.8675 52.4162 26.2542 52.5498 26.6834L51.074 27.0902C50.989 26.8068 50.8736 26.5538 50.7278 26.3311C50.5861 26.1044 50.412 25.9121 50.2056 25.7542C50.0031 25.5963 49.7683 25.4768 49.5011 25.3959C49.2379 25.3108 48.9424 25.2683 48.6144 25.2683C48.1893 25.2683 47.8108 25.3453 47.4788 25.4991C47.1508 25.6489 46.8735 25.8635 46.6468 26.1428C46.4241 26.4182 46.254 26.7522 46.1366 27.1449C46.0233 27.5336 45.9666 27.9668 45.9666 28.4445C45.9666 28.9223 46.0212 29.3575 46.1305 29.7502C46.2439 30.1389 46.4099 30.4729 46.6285 30.7523C46.8512 31.0276 47.1265 31.2422 47.4545 31.396C47.7865 31.5458 48.1731 31.6207 48.6144 31.6207C48.9424 31.6207 49.2379 31.5803 49.5011 31.4993C49.7683 31.4143 50.0031 31.2928 50.2056 31.1349C50.412 30.977 50.5861 30.7867 50.7278 30.564C50.8736 30.3373 50.989 30.0822 51.074 29.7988L52.5498 30.2057C52.4162 30.6349 52.2299 31.0215 51.991 31.3657C51.7522 31.7098 51.4667 32.0033 51.1347 32.2463C50.8027 32.4892 50.4242 32.6754 49.9991 32.805C49.578 32.9346 49.1165 32.9993 48.6144 32.9993ZM56.7922 31.6511C57.1687 31.6511 57.4805 31.5742 57.7274 31.4203C57.9744 31.2624 58.1708 31.0276 58.3165 30.7159L59.7619 31.1288C59.5068 31.728 59.1222 32.1896 58.608 32.5135C58.0938 32.8374 57.4886 32.9993 56.7922 32.9993C56.3023 32.9993 55.8549 32.9163 55.45 32.7503C55.0492 32.5803 54.7051 32.3434 54.4176 32.0398C54.1342 31.7321 53.9135 31.3657 53.7556 30.9406C53.5977 30.5154 53.5188 30.0478 53.5188 29.5377C53.5188 29.0195 53.5977 28.5478 53.7556 28.1227C53.9176 27.6976 54.1423 27.3332 54.4298 27.0295C54.7172 26.7259 55.0593 26.491 55.4561 26.325C55.8569 26.159 56.2982 26.076 56.78 26.076C57.3023 26.076 57.7618 26.1671 58.1586 26.3493C58.5594 26.5315 58.8914 26.7906 59.1546 27.1267C59.4178 27.4627 59.6081 27.8696 59.7255 28.3474C59.8429 28.8211 59.8793 29.3535 59.8348 29.9446H55.0917C55.1565 30.4871 55.3346 30.9082 55.6261 31.2078C55.9217 31.5033 56.3104 31.6511 56.7922 31.6511ZM58.3469 28.8393C58.3104 28.3737 58.1546 28.0134 57.8793 27.7583C57.608 27.5032 57.2416 27.3757 56.78 27.3757C56.3347 27.3757 55.9703 27.5032 55.6869 27.7583C55.4075 28.0134 55.2213 28.3737 55.1282 28.8393H58.3469ZM65.5363 29.2037C65.5363 28.6409 65.4048 28.2077 65.1416 27.904C64.8825 27.6004 64.5039 27.4486 64.0059 27.4486C63.5079 27.4486 63.1253 27.6004 62.8581 27.904C62.5949 28.2036 62.4634 28.6369 62.4634 29.2037V32.8171H60.9998V26.2582H62.4634V27.1145C62.5443 26.9647 62.6415 26.8271 62.7549 26.7016C62.8723 26.5761 63.0099 26.4667 63.1678 26.3736C63.3257 26.2805 63.5039 26.2076 63.7023 26.155C63.9047 26.1024 64.1335 26.076 64.3885 26.076C64.7813 26.076 65.1375 26.1327 65.4574 26.2461C65.7772 26.3595 66.0505 26.5315 66.2772 26.7623C66.508 26.9931 66.6862 27.2866 66.8117 27.6429C66.9372 27.9951 66.9999 28.4142 66.9999 28.9V32.8171H65.5363V29.2037ZM67.8507 26.2582H69.0411V24.0719H70.4986V26.2582H72.4238V27.6186H70.4986V30.6673C70.4986 30.9628 70.5654 31.1794 70.699 31.3171C70.8367 31.4507 71.0533 31.5175 71.3488 31.5175H72.4238V32.8171H71.0452C70.4095 32.8171 69.9156 32.6552 69.5633 32.3313C69.2152 32.0074 69.0411 31.5519 69.0411 30.9649V27.6186H67.8507V26.2582ZM77.5205 27.4971C77.4273 27.4769 77.3221 27.4648 77.2047 27.4607C77.0913 27.4526 76.9658 27.4486 76.8281 27.4486C76.3342 27.4486 75.9536 27.6004 75.6864 27.904C75.4192 28.2036 75.2856 28.6369 75.2856 29.2037V32.8171H73.822V26.2582H75.2856V27.1145C75.3666 26.9647 75.4637 26.8271 75.5771 26.7016C75.6945 26.5761 75.8322 26.4667 75.9901 26.3736C76.148 26.2805 76.3261 26.2076 76.5245 26.155C76.7269 26.1024 76.9557 26.076 77.2107 26.076C77.2634 26.076 77.314 26.0781 77.3626 26.0821C77.4152 26.0821 77.4678 26.0841 77.5205 26.0882V27.4971ZM81.1612 26.076C82.1005 26.076 82.7968 26.3129 83.2503 26.7866C83.7078 27.2562 83.9366 27.9749 83.9366 28.9425V32.8171H82.479V31.9365C82.0458 32.6451 81.3393 32.9993 80.3595 32.9993C80.0275 32.9993 79.7259 32.9528 79.4546 32.8597C79.1834 32.7665 78.9506 32.6349 78.7562 32.4649C78.566 32.2908 78.4182 32.0823 78.3129 31.8394C78.2076 31.5965 78.155 31.3272 78.155 31.0317C78.155 30.3879 78.3757 29.8879 78.817 29.5316C79.2623 29.1753 79.9061 28.9446 80.7482 28.8393L82.473 28.6267C82.4608 28.1895 82.3454 27.8696 82.1268 27.6672C81.9082 27.4648 81.5863 27.3635 81.1612 27.3635C80.7644 27.3635 80.4506 27.4364 80.2198 27.5822C79.9891 27.7279 79.8231 27.9587 79.7219 28.2745L78.3919 27.9162C78.566 27.317 78.8898 26.8615 79.3635 26.5497C79.8372 26.2339 80.4365 26.076 81.1612 26.076ZM80.9547 29.8839C80.485 29.9405 80.1389 30.0539 79.9162 30.2239C79.6976 30.3899 79.5882 30.6187 79.5882 30.9102C79.5882 31.4892 79.9628 31.7786 80.7118 31.7786C80.9142 31.7786 81.1025 31.7523 81.2766 31.6997C81.4507 31.6471 81.6065 31.5762 81.7442 31.4871C81.8859 31.394 82.0074 31.2847 82.1086 31.1592C82.2098 31.0296 82.2867 30.892 82.3393 30.7462C82.4082 30.5883 82.4487 30.4203 82.4608 30.2422C82.473 30.064 82.479 29.9021 82.479 29.7563V29.6956L80.9547 29.8839ZM85.6391 32.8171V23.8897H87.1027V32.8171H85.6391ZM98.4468 32.8171H96.9042L96.2848 30.9223H92.8717L92.2523 32.8171H90.7097L93.6066 24.0719H95.556L98.4468 32.8171ZM95.8415 29.5559L94.5783 25.6752L93.3151 29.5559H95.8415ZM102.053 32.9993C101.235 32.9993 100.575 32.8212 100.073 32.4649C99.5711 32.1046 99.2594 31.5884 99.1379 30.9163L100.638 30.6794C100.719 31.0276 100.881 31.2908 101.124 31.4689C101.371 31.643 101.691 31.7301 102.083 31.7301C102.44 31.7301 102.721 31.6612 102.927 31.5236C103.138 31.3859 103.243 31.1936 103.243 30.9466C103.243 30.8738 103.235 30.809 103.219 30.7523C103.203 30.6916 103.172 30.6369 103.128 30.5883C103.087 30.5397 103.031 30.4952 102.958 30.4547C102.889 30.4102 102.798 30.3677 102.685 30.3272C102.462 30.2462 102.097 30.1389 101.591 30.0053C101.211 29.9081 100.881 29.8029 100.602 29.6895C100.322 29.5762 100.089 29.4446 99.9031 29.2948C99.7169 29.145 99.5772 28.9729 99.4841 28.7786C99.395 28.5802 99.3505 28.3474 99.3505 28.0802C99.3505 27.7765 99.4112 27.5032 99.5326 27.2603C99.6582 27.0133 99.8343 26.8028 100.061 26.6287C100.288 26.4505 100.561 26.3149 100.881 26.2218C101.201 26.1246 101.555 26.076 101.944 26.076C102.32 26.076 102.666 26.1226 102.982 26.2157C103.302 26.3048 103.581 26.4344 103.82 26.6044C104.059 26.7704 104.253 26.9728 104.403 27.2117C104.557 27.4506 104.654 27.7178 104.695 28.0134L103.201 28.2806C103.16 27.9891 103.025 27.7603 102.794 27.5943C102.563 27.4243 102.263 27.3392 101.895 27.3392C101.737 27.3392 101.591 27.3554 101.458 27.3878C101.324 27.4202 101.209 27.4668 101.112 27.5275C101.019 27.5882 100.944 27.6611 100.887 27.7461C100.834 27.8271 100.808 27.9162 100.808 28.0134C100.808 28.1024 100.828 28.1793 100.869 28.2441C100.909 28.3049 100.966 28.3615 101.039 28.4142C101.112 28.4628 101.201 28.5073 101.306 28.5478C101.411 28.5883 101.529 28.6288 101.658 28.6692C101.804 28.7138 101.976 28.7664 102.174 28.8271C102.373 28.8838 102.598 28.9466 102.849 29.0154C103.193 29.1085 103.484 29.2138 103.723 29.3312C103.962 29.4486 104.156 29.5822 104.306 29.732C104.46 29.8778 104.571 30.0458 104.64 30.2361C104.709 30.4264 104.743 30.641 104.743 30.8798C104.743 31.2078 104.681 31.5033 104.555 31.7665C104.434 32.0297 104.255 32.2523 104.021 32.4345C103.79 32.6167 103.508 32.7564 103.176 32.8536C102.844 32.9507 102.47 32.9993 102.053 32.9993ZM106.195 25.2623V23.9201H107.659V25.2623H106.195ZM106.195 32.8171V26.2582H107.659V32.8171H106.195ZM112.12 26.076C113.059 26.076 113.755 26.3129 114.209 26.7866C114.666 27.2562 114.895 27.9749 114.895 28.9425V32.8171H113.437V31.9365C113.004 32.6451 112.298 32.9993 111.318 32.9993C110.986 32.9993 110.684 32.9528 110.413 32.8597C110.142 32.7665 109.909 32.6349 109.715 32.4649C109.524 32.2908 109.377 32.0823 109.271 31.8394C109.166 31.5965 109.113 31.3272 109.113 31.0317C109.113 30.3879 109.334 29.8879 109.775 29.5316C110.221 29.1753 110.864 28.9446 111.707 28.8393L113.431 28.6267C113.419 28.1895 113.304 27.8696 113.085 27.6672C112.867 27.4648 112.545 27.3635 112.12 27.3635C111.723 27.3635 111.409 27.4364 111.178 27.5822C110.947 27.7279 110.781 27.9587 110.68 28.2745L109.35 27.9162C109.524 27.317 109.848 26.8615 110.322 26.5497C110.796 26.2339 111.395 26.076 112.12 26.076ZM111.913 29.8839C111.443 29.9405 111.097 30.0539 110.875 30.2239C110.656 30.3899 110.547 30.6187 110.547 30.9102C110.547 31.4892 110.921 31.7786 111.67 31.7786C111.873 31.7786 112.061 31.7523 112.235 31.6997C112.409 31.6471 112.565 31.5762 112.703 31.4871C112.844 31.394 112.966 31.2847 113.067 31.1592C113.168 31.0296 113.245 30.892 113.298 30.7462C113.367 30.5883 113.407 30.4203 113.419 30.2422C113.431 30.064 113.437 29.9021 113.437 29.7563V29.6956L111.913 29.8839Z" fill="white"/>
<path fill-rule="evenodd" clip-rule="evenodd" d="M51.4326 18.5065H44.8499L40.4407 1.2085L45.9441 1.21984L48.2031 12.7836H48.252L50.4124 1.21984L55.8167 1.2085L51.4326 18.5065Z" fill="white"/>
<path fill-rule="evenodd" clip-rule="evenodd" d="M73.8873 9.98578C73.9258 9.98232 73.5496 9.98232 73.6998 9.98232C72.5109 9.98232 71.4324 10.7671 71.4324 12.4848V18.4272L67.1766 18.4364V5.81351L71.498 5.82561V7.69956H71.5457C71.9012 6.10584 72.7076 5.73682 73.9132 5.73682L73.8873 9.98578Z" fill="white"/>
<path fill-rule="evenodd" clip-rule="evenodd" d="M88.5682 18.4368V10.546C88.5682 10.008 88.0367 9.61422 87.3712 9.61422C86.6839 9.61422 86.2122 10.1545 86.2122 10.6204V18.427L81.9985 18.4368V10.5956C81.9985 10.008 81.5188 9.61422 80.8544 9.61422C80.3097 9.61422 79.6851 9.98267 79.6851 10.6204V18.427L75.0773 18.4368V5.81327L79.3037 5.82596V6.9215H79.3515C79.9727 5.75735 81.3939 5.50537 82.6501 5.50537C83.9564 5.50537 84.8128 5.68815 85.5473 6.57208C86.2841 5.78617 87.2096 5.50537 88.349 5.50537C90.889 5.50537 92.8452 7.20922 92.8452 9.76241V18.427L88.5682 18.4368Z" fill="white"/>
<path fill-rule="evenodd" clip-rule="evenodd" d="M105.394 17.0918C103.685 18.3666 102.529 18.7184 100.201 18.7184C96.3558 18.7184 93.626 15.7985 93.626 12.2639C93.626 7.87253 96.5226 5.27148 100.036 5.27148C102.862 5.27148 105.022 6.89173 106.043 9.36938L99.6792 14.3253C100.013 14.4977 100.582 14.5455 101.009 14.5467C102.851 14.5559 103.736 14.3218 105.387 13.1075L105.394 17.0918ZM101.437 9.68824C101.057 9.17334 100.582 9.04994 99.9887 9.04994C98.8486 9.04994 98.0653 10.1547 98.0653 11.2589C98.0653 11.7992 98.1607 11.9462 98.2545 12.1665L101.437 9.68824Z" fill="white"/>
<path fill-rule="evenodd" clip-rule="evenodd" d="M126.808 9.98673C126.618 9.96194 126.449 9.98327 126.092 9.98327C124.905 9.98327 123.825 10.768 123.825 12.4857V18.4282L119.57 18.4374V5.81445L123.892 5.82656V7.70051H123.94C124.294 6.10679 125.057 5.82656 126.791 5.82656L126.808 9.98673Z" fill="white"/>
<path fill-rule="evenodd" clip-rule="evenodd" d="M118.216 17.0918C116.505 18.3666 115.35 18.7184 113.023 18.7184C109.176 18.7184 106.446 15.7985 106.446 12.2639C106.446 7.87253 109.341 5.27148 112.856 5.27148C115.681 5.27148 117.843 6.89173 118.863 9.36938L112.499 14.3253C112.832 14.4977 113.403 14.5455 113.83 14.5467C115.67 14.5559 116.556 14.3218 118.206 13.1075L118.216 17.0918ZM114.257 9.68824C113.876 9.17334 113.403 9.04994 112.808 9.04994C111.668 9.04994 110.886 10.1547 110.886 11.2589C110.886 11.7992 110.981 11.9462 111.076 12.1665L114.257 9.68824Z" fill="white"/>
<path fill-rule="evenodd" clip-rule="evenodd" d="M61.8639 9.68824C61.4843 9.17276 61.0092 9.04994 60.4162 9.04994C59.2767 9.04994 58.4922 10.1547 58.4922 11.2589C58.4922 11.7992 58.5877 11.9462 58.6826 12.1665L61.8639 9.68824ZM65.8217 17.0918C64.1123 18.3666 62.9556 18.7184 60.6296 18.7184C56.7833 18.7184 54.0524 15.7985 54.0524 12.2639C54.0524 7.87253 56.9496 5.27148 60.4633 5.27148C63.2886 5.27148 65.449 6.89115 66.4699 9.36938L60.1073 14.3253C60.4392 14.4977 61.0092 14.5455 61.4365 14.5467C63.2771 14.5553 64.1635 14.3218 65.8142 13.1075L65.8217 17.0918Z" fill="white"/>
<mask id="mask0_1222_652" style="mask-type:luminance" maskUnits="userSpaceOnUse" x="127" y="3" width="3" height="3">
<path d="M129.606 5.9753V3.75366H127.361V5.9753H129.606Z" fill="white"/>
</mask>
<g mask="url(#mask0_1222_652)">
<path fill-rule="evenodd" clip-rule="evenodd" d="M128.485 4.78578C128.65 4.78578 128.795 4.77367 128.795 4.57762C128.795 4.41848 128.651 4.38908 128.516 4.38908H128.253V4.78578H128.485ZM128.253 5.5048H128.059V4.22417H128.546C128.849 4.22417 128.996 4.3366 128.996 4.58916C128.996 4.81807 128.854 4.91782 128.667 4.94146L129.03 5.5048H128.812L128.474 4.94953H128.253V5.5048ZM128.487 5.79021C128.988 5.79021 129.383 5.39697 129.383 4.86246C129.383 4.3366 128.988 3.9399 128.487 3.9399C127.981 3.9399 127.586 4.3366 127.586 4.86246C127.586 5.39697 127.981 5.79021 128.487 5.79021ZM127.361 4.86246C127.361 4.22417 127.877 3.75366 128.487 3.75366C129.091 3.75366 129.607 4.22417 129.607 4.86246C129.607 5.5048 129.091 5.9753 128.487 5.9753C127.877 5.9753 127.361 5.5048 127.361 4.86246Z" fill="white"/>
</g>
<path d="M18.7931 7.6967L18.8663 7.82527L18.9399 7.69696C19.5902 6.56423 20.6898 4.65054 21.6269 3.02001L22.8341 0.919638L23.2028 0.278153L23.3034 0.103233L23.3141 0.0845853H35.6461H37.7128L18.9282 32.6979L0.146322 0.0845853H14.4584L14.4688 0.102862L14.5683 0.277581L14.9332 0.918398L16.1284 3.0172L18.7931 7.6967Z" fill="white" stroke="black" stroke-width="0.169171"/>
<path fill-rule="evenodd" clip-rule="evenodd" d="M7.60797 10.6785L18.864 30.2223L23.9151 21.4525C22.5302 19.7498 17.798 14.7091 7.60797 10.6785Z" fill="black"/>
<path fill-rule="evenodd" clip-rule="evenodd" d="M7.29221 10.1301L7.60845 10.6775C17.7985 14.7081 22.5307 19.7489 23.9156 21.4515L26.9105 16.2529C21.1606 12.1585 9.87841 10.4713 7.29221 10.1301Z" fill="#FEFEFE"/>
<path fill-rule="evenodd" clip-rule="evenodd" d="M18.873 10.0183C18.8569 10.0445 18.8314 10.0559 18.7986 10.0559C18.7644 10.0559 18.7356 10.0391 18.7209 10.0109L13.7005 1.19678H2.14771L7.29198 10.1305C9.87818 10.4717 21.1603 12.1589 26.9103 16.2533L35.5808 1.19678H23.9395L18.873 10.0183Z" fill="#003213"/>
</svg>
